<?xml version="1.0" standalone="no"?>
<!DOCTYPE svg PUBLIC "-//W3C//DTD SVG 20010904//EN"
 "http://www.w3.org/TR/2001/REC-SVG-20010904/DTD/svg10.dtd">
<svg version="1.0" xmlns="http://www.w3.org/2000/svg"
 width="512.000000pt" height="512.000000pt" viewBox="0 0 512.000000 512.000000"
 preserveAspectRatio="xMidYMid meet">
<metadata>
Created by potrace 1.11, written by Peter Selinger 2001-2013
</metadata>
<g transform="translate(0.000000,512.000000) scale(0.100000,-0.100000)"
fill="#000000" stroke="none">
<path d="M672 5105 c-173 -38 -309 -111 -427 -230 -33 -33 -72 -76 -87 -96
-44 -60 -106 -189 -130 -274 l-23 -80 0 -1850 c0 -1017 3 -1868 7 -1891 4 -22
19 -76 33 -120 91 -269 320 -476 605 -543 84 -20 114 -20 1930 -18 1015 1
1855 6 1868 10 12 4 32 9 43 12 45 10 96 29 161 61 231 113 387 312 448 568
18 78 19 147 19 1901 0 1117 -4 1839 -9 1870 -44 228 -171 425 -357 553 -53
37 -167 90 -245 114 l-73 23 -1850 2 c-1533 1 -1861 -1 -1913 -12z"/>
</g>
</svg>
