<?xml version="1.0" encoding="UTF-8"?>
<!-- Created with Inkscape (http://www.inkscape.org/) -->
<svg width="321.33mm" height="50mm" version="1.1" viewBox="0 0 321.33 50" xmlns="http://www.w3.org/2000/svg" xmlns:cc="http://creativecommons.org/ns#" xmlns:dc="http://purl.org/dc/elements/1.1/" xmlns:rdf="http://www.w3.org/1999/02/22-rdf-syntax-ns#">
 <metadata>
  <rdf:RDF>
   <cc:Work rdf:about="">
    <dc:format>image/svg+xml</dc:format>
    <dc:type rdf:resource="http://purl.org/dc/dcmitype/StillImage"/>
    <dc:title/>
   </cc:Work>
  </rdf:RDF>
 </metadata>
 <g transform="translate(332.46 -31.985)" fill="#3b495d">
  <path d="m-164.99 36.356 2.036 7.6499a2.0982 2.0982 0 0 1 0.0623 0.49738 2.0982 2.0982 0 0 1-2.0981 2.0981 2.0982 2.0982 0 0 1-2.0981-2.0981 2.0982 2.0982 0 0 1 0.0621-0.49738z"/>
  <path d="m-256.23 44.59 1.2361 4.6445a1.2738 1.2738 0 0 1 0.0378 0.30197 1.2738 1.2738 0 0 1-1.2738 1.2738 1.2738 1.2738 0 0 1-1.2738-1.2738 1.2738 1.2738 0 0 1 0.0376-0.30197z"/>
  <path d="m-75.455 42.322 2.6257 9.8656a2.7059 2.7059 0 0 1 0.0803 0.64143 2.7059 2.7059 0 0 1-2.7058 2.7058 2.7059 2.7059 0 0 1-2.7058-2.7058 2.7059 2.7059 0 0 1 0.08-0.64143z"/>
  <path d="m-147.22 52.93 1.2361 4.6445a1.2738 1.2738 0 0 1 0.0378 0.30197 1.2738 1.2738 0 0 1-1.2738 1.2738 1.2738 1.2738 0 0 1-1.2738-1.2738 1.2738 1.2738 0 0 1 0.0376-0.30197z"/>
  <path d="m-292.38 48.232 1.9873 7.4667a2.0479 2.0479 0 0 1 0.0608 0.48546 2.0479 2.0479 0 0 1-2.0479 2.0479 2.0479 2.0479 0 0 1-2.0479-2.0479 2.0479 2.0479 0 0 1 0.0605-0.48546z"/>
  <path d="m-315.33 40.835 0.66058 2.482a0.68074 0.68074 0 0 1 0.0202 0.16137 0.68074 0.68074 0 0 1-0.68073 0.68073 0.68074 0.68074 0 0 1-0.68073-0.68073 0.68074 0.68074 0 0 1 0.0201-0.16137z"/>
  <path d="m-232.64 59.292 0.66058 2.482a0.68074 0.68074 0 0 1 0.0202 0.16137 0.68074 0.68074 0 0 1-0.68073 0.68073 0.68074 0.68074 0 0 1-0.68073-0.68073 0.68074 0.68074 0 0 1 0.0201-0.16137z"/>
  <path d="m-143.25 42.85 0.66058 2.482a0.68074 0.68074 0 0 1 0.0202 0.16137 0.68074 0.68074 0 0 1-0.68073 0.68073 0.68074 0.68074 0 0 1-0.68073-0.68073 0.68074 0.68074 0 0 1 0.0201-0.16137z"/>
  <path d="m-180.11 51.352 0.93567 3.5156a0.96422 0.96422 0 0 1 0.0286 0.22857 0.96422 0.96422 0 0 1-0.96421 0.96421 0.96422 0.96422 0 0 1-0.96421-0.96421 0.96422 0.96422 0 0 1 0.0285-0.22857z"/>
  <path d="m-233.79 38.669 1.5366 5.7733a1.5835 1.5835 0 0 1 0.047 0.37537 1.5835 1.5835 0 0 1-1.5834 1.5834 1.5835 1.5835 0 0 1-1.5834-1.5834 1.5835 1.5835 0 0 1 0.0468-0.37537z"/>
  <path d="m-284.55 68.925 0.93567 3.5156a0.96422 0.96422 0 0 1 0.0286 0.22857 0.96422 0.96422 0 0 1-0.96421 0.96421 0.96422 0.96422 0 0 1-0.96422-0.96421 0.96422 0.96422 0 0 1 0.0285-0.22857z"/>
  <path d="m-121.51 37.975 0.93567 3.5156a0.96422 0.96422 0 0 1 0.0286 0.22857 0.96422 0.96422 0 0 1-0.96421 0.96421 0.96422 0.96422 0 0 1-0.96421-0.96421 0.96422 0.96422 0 0 1 0.0285-0.22857z"/>
  <path d="m-38.119 39.125 2.036 7.6499a2.0982 2.0982 0 0 1 0.0623 0.49738 2.0982 2.0982 0 0 1-2.0981 2.0981 2.0982 2.0982 0 0 1-2.0981-2.0981 2.0982 2.0982 0 0 1 0.0621-0.49738z"/>
  <path d="m-58.529 39.005 0.66058 2.482a0.68074 0.68074 0 0 1 0.0202 0.16137 0.68074 0.68074 0 0 1-0.68073 0.68073 0.68074 0.68074 0 0 1-0.68073-0.68073 0.68074 0.68074 0 0 1 0.0201-0.16137z"/>
  <path d="m-95.015 37.47 1.5366 5.7733a1.5835 1.5835 0 0 1 0.047 0.37537 1.5835 1.5835 0 0 1-1.5834 1.5834 1.5835 1.5835 0 0 1-1.5834-1.5834 1.5835 1.5835 0 0 1 0.0468-0.37537z"/>
  <path d="m-203.56 36.079 2.9374 11.037a3.027 3.027 0 0 1 0.0899 0.71757 3.027 3.027 0 0 1-3.027 3.027 3.027 3.027 0 0 1-3.027-3.027 3.027 3.027 0 0 1 0.0896-0.71757z"/>
  <path d="m-314.26 55.885 1.837 6.9022a1.8931 1.8931 0 0 1 0.0562 0.44876 1.8931 1.8931 0 0 1-1.8931 1.8931 1.8931 1.8931 0 0 1-1.8931-1.8931 1.8931 1.8931 0 0 1 0.056-0.44876z"/>
  <path d="m-271.17 42.714 0.66058 2.482a0.68074 0.68074 0 0 1 0.0202 0.16137 0.68074 0.68074 0 0 1-0.68073 0.68073 0.68074 0.68074 0 0 1-0.68073-0.68073 0.68074 0.68074 0 0 1 0.0201-0.16137z"/>
 </g>
</svg>
