<?xml version="1.0" encoding="UTF-8"?>
<!-- Created with Inkscape (http://www.inkscape.org/) -->
<svg width="321.33mm" height="50mm" version="1.1" viewBox="0 0 321.33 50" xmlns="http://www.w3.org/2000/svg" xmlns:cc="http://creativecommons.org/ns#" xmlns:dc="http://purl.org/dc/elements/1.1/" xmlns:rdf="http://www.w3.org/1999/02/22-rdf-syntax-ns#">
 <metadata>
  <rdf:RDF>
   <cc:Work rdf:about="">
    <dc:format>image/svg+xml</dc:format>
    <dc:type rdf:resource="http://purl.org/dc/dcmitype/StillImage"/>
    <dc:title/>
   </cc:Work>
  </rdf:RDF>
 </metadata>
 <g transform="translate(332.46 -31.985)">
  <g fill="#273549">
   <path d="m-178.4 42.214-2.036 7.6499a2.0982 2.0982 0 0 0-0.0623 0.49738 2.0982 2.0982 0 0 0 2.0981 2.0981 2.0982 2.0982 0 0 0 2.0981-2.0981 2.0982 2.0982 0 0 0-0.0621-0.49738z"/>
   <path d="m-142.69 53.998-0.93567 3.5156a0.96422 0.96422 0 0 0-0.0286 0.22857 0.96422 0.96422 0 0 0 0.96421 0.96421 0.96422 0.96422 0 0 0 0.96421-0.96421 0.96422 0.96422 0 0 0-0.0285-0.22857z"/>
   <path d="m-86.544 44.59-2.0142 6.0414a2.0757 1.657 0 0 0-0.06156 0.3928 2.0757 1.657 0 0 0 2.0756 1.657 2.0757 1.657 0 0 0 2.0756-1.657 2.0757 1.657 0 0 0-0.06135-0.3928z"/>
   <path d="m-46.631 45.346-2.6257 9.8656a2.7059 2.7059 0 0 0-0.08026 0.64143 2.7059 2.7059 0 0 0 2.7058 2.7058 2.7059 2.7059 0 0 0 2.7058-2.7058 2.7059 2.7059 0 0 0-0.07998-0.64143z"/>
   <path d="m-201.65 43.103-1.2361 4.6445a1.2738 1.2738 0 0 0-0.0378 0.30197 1.2738 1.2738 0 0 0 1.2738 1.2738 1.2738 1.2738 0 0 0 1.2738-1.2738 1.2738 1.2738 0 0 0-0.0376-0.30197z"/>
   <path d="m-21.337 62.973-1.9873 7.4667a2.0479 2.0479 0 0 0-0.06077 0.48546 2.0479 2.0479 0 0 0 2.0479 2.0479 2.0479 2.0479 0 0 0 2.0479-2.0479 2.0479 2.0479 0 0 0-0.06045-0.48546z"/>
   <path d="m-66.051 37.433-0.66058 2.482a0.68074 0.68074 0 0 0-0.0202 0.16137 0.68074 0.68074 0 0 0 0.68073 0.68073 0.68074 0.68074 0 0 0 0.68073-0.68073 0.68074 0.68074 0 0 0-0.0201-0.16137z"/>
   <path d="m-110.94 59.292-0.66058 2.482a0.68074 0.68074 0 0 0-0.0202 0.16137 0.68074 0.68074 0 0 0 0.68073 0.68073 0.68074 0.68074 0 0 0 0.68073-0.68073 0.68074 0.68074 0 0 0-0.0201-0.16137z"/>
   <path d="m-168.2 34.156-0.66058 2.482a0.68074 0.68074 0 0 0-0.0202 0.16137 0.68074 0.68074 0 0 0 0.68073 0.68073 0.68074 0.68074 0 0 0 0.68073-0.68073 0.68074 0.68074 0 0 0-0.0201-0.16137z"/>
   <path d="m-126.34 35.867-1.5366 5.7733a1.5835 1.5835 0 0 0-0.047 0.37537 1.5835 1.5835 0 0 0 1.5834 1.5834 1.5835 1.5835 0 0 0 1.5834-1.5834 1.5835 1.5835 0 0 0-0.0468-0.37537z"/>
   <path d="m-23.503 35.285-0.93567 3.5156a0.96422 0.96422 0 0 0-0.02861 0.22857 0.96422 0.96422 0 0 0 0.96421 0.96421 0.96422 0.96422 0 0 0 0.96421-0.96421 0.96422 0.96422 0 0 0-0.02847-0.22857z"/>
   <path d="m-247.4 38.731-0.93567 3.5156a0.96422 0.96422 0 0 0-0.0286 0.22857 0.96422 0.96422 0 0 0 0.96421 0.96421 0.96422 0.96422 0 0 0 0.96421-0.96421 0.96422 0.96422 0 0 0-0.0285-0.22857z"/>
   <path d="m-305.46 39.125-2.036 7.6499a2.0982 2.0982 0 0 0-0.0623 0.49738 2.0982 2.0982 0 0 0 2.0981 2.0981 2.0982 2.0982 0 0 0 2.0981-2.0981 2.0982 2.0982 0 0 0-0.0621-0.49738z"/>
   <path d="m-285.05 39.005-0.66058 2.482a0.68074 0.68074 0 0 0-0.0202 0.16137 0.68074 0.68074 0 0 0 0.68073 0.68073 0.68074 0.68074 0 0 0 0.68073-0.68073 0.68074 0.68074 0 0 0-0.0201-0.16137z"/>
   <path d="m-70.805 65.91-1.2772 4.576a1.3162 1.2551 0 0 0-0.03907 0.29752 1.3162 1.2551 0 0 0 1.3162 1.255 1.3162 1.2551 0 0 0 1.3162-1.255 1.3162 1.2551 0 0 0-0.0389-0.29752z"/>
   <path d="m-218.51 43.6-2.9374 11.037a3.027 3.027 0 0 0-0.0899 0.71757 3.027 3.027 0 0 0 3.027 3.027 3.027 3.027 0 0 0 3.027-3.027 3.027 3.027 0 0 0-0.0896-0.71757z"/>
   <path d="m-261.4 43.978-1.837 6.9022a1.8931 1.8931 0 0 0-0.0562 0.44876 1.8931 1.8931 0 0 0 1.8931 1.8931 1.8931 1.8931 0 0 0 1.8931-1.8931 1.8931 1.8931 0 0 0-0.056-0.44876z"/>
   <path d="m-326.79 48.762-0.66058 2.482a0.68074 0.68074 0 0 0-0.0202 0.16137 0.68074 0.68074 0 0 0 0.68073 0.68073 0.68074 0.68074 0 0 0 0.68073-0.68073 0.68074 0.68074 0 0 0-0.0201-0.16137z"/>
  </g>
 </g>
</svg>
