<?xml version="1.0" encoding="UTF-8"?>
<!-- Created with Inkscape (http://www.inkscape.org/) -->
<svg width="321.33mm" height="50mm" version="1.1" viewBox="0 0 321.33 50" xmlns="http://www.w3.org/2000/svg" xmlns:cc="http://creativecommons.org/ns#" xmlns:dc="http://purl.org/dc/elements/1.1/" xmlns:rdf="http://www.w3.org/1999/02/22-rdf-syntax-ns#">
 <metadata>
  <rdf:RDF>
   <cc:Work rdf:about="">
    <dc:format>image/svg+xml</dc:format>
    <dc:type rdf:resource="http://purl.org/dc/dcmitype/StillImage"/>
    <dc:title/>
   </cc:Work>
  </rdf:RDF>
 </metadata>
 <g transform="translate(332.46 -31.985)" fill="#3b495d">
  <path transform="matrix(.26458 0 0 .26458 -332.46 31.985)" d="m1214.5 94.488-38.182 2.9707 0.293 1.0977a4.6363 4.6363 0 0 1 0.1367 1.0996 4.6363 4.6363 0 0 1-4.6367 4.6367 4.6363 4.6363 0 0 1-4.6367-4.6367 4.6363 4.6363 0 0 1 0.1386-1.0996l0.1133-0.42969-68.443 5.3242 1.5742 5.916a11.24 11.24 0 0 1 0.334 2.6641 11.24 11.24 0 0 1-11.24 11.24 11.24 11.24 0 0 1-11.24-11.24 11.24 11.24 0 0 1 0.332-2.6641l1.1797-4.4316-122.29 9.5137a19.64 19.64 0 0 1 0.00196 0.08594 19.64 19.64 0 0 1-19.639 19.639 19.64 19.64 0 0 1-19.4-16.688l-76.131 5.9238 6.2207 23.375a18.274 18.274 0 0 1 0.54297 4.332 18.274 18.274 0 0 1-18.273 18.273 18.274 18.274 0 0 1-18.273-18.273 18.274 18.274 0 0 1 0.54102-4.332l5.7344-21.547-53.77 4.1836a6.0609 6.0609 0 0 1 1.5098 3.9961 6.0609 6.0609 0 0 1-6.0606 6.0606 6.0609 6.0609 0 0 1-6.0606-6.0606 6.0609 6.0609 0 0 1 0.94336-3.2441l-62.768 4.8828 2.9727 11.166a8.9644 8.9644 0 0 1 0.26562 2.125 8.9644 8.9644 0 0 1-8.9648 8.9648 8.9644 8.9644 0 0 1-8.9648-8.9648 8.9644 8.9644 0 0 1 0.26562-2.125l2.7305-10.256-77.656 6.041a28.124 28.124 0 0 1-27.947 25.08 28.124 28.124 0 0 1-27.143-20.793l-80.047 6.2285 1.8535 6.9629a18.274 18.274 0 0 1 0.54101 4.332 18.274 18.274 0 0 1-18.273 18.273 18.274 18.274 0 0 1-18.273-18.273 18.274 18.274 0 0 1 0.54101-4.332l1.1816-4.4414-102.61 7.9824 0.85938 3.2285a10.362 10.362 0 0 1 0.30859 2.4551 10.362 10.362 0 0 1-10.363 10.363 10.362 10.362 0 0 1-10.361-10.363 10.362 10.362 0 0 1 0.30664-2.4551l0.47071-1.7656-42.043 3.2715a14.677 14.677 0 0 1-11.781 5.9512 14.677 14.677 0 0 1-10.297-4.2344l-250.61 19.498h1214.5v-94.488z" fill="#3b495d"/>
 </g>
</svg>
