<?xml version="1.0" encoding="UTF-8"?>
<!-- Created with Inkscape (http://www.inkscape.org/) -->
<svg width="321.33mm" height="50mm" version="1.1" viewBox="0 0 321.33 50" xmlns="http://www.w3.org/2000/svg" xmlns:cc="http://creativecommons.org/ns#" xmlns:dc="http://purl.org/dc/elements/1.1/" xmlns:rdf="http://www.w3.org/1999/02/22-rdf-syntax-ns#">
 <metadata>
  <rdf:RDF>
   <cc:Work rdf:about="">
    <dc:format>image/svg+xml</dc:format>
    <dc:type rdf:resource="http://purl.org/dc/dcmitype/StillImage"/>
    <dc:title/>
   </cc:Work>
  </rdf:RDF>
 </metadata>
 <g transform="translate(332.46 -31.985)">
  <path transform="matrix(.26458 0 0 .26458 -332.46 31.985)" d="m0 94.488v94.488h1214.5l-115.48-8.9844a14.677 14.677 0 0 1-11.141 5.1504 14.677 14.677 0 0 1-12.48-6.9863l-175.63-13.664 0.46875 1.7637a10.362 10.362 0 0 1 0.30664 2.4551 10.362 10.362 0 0 1-10.361 10.363 10.362 10.362 0 0 1-10.361-10.363 10.362 10.362 0 0 1 0.30665-2.4551l0.85937-3.2266-101.99-7.9336a7.4367 7.4367 0 0 1-7.0039 4.959 7.4367 7.4367 0 0 1-7.3047-6.0723l-85.797-6.6758 3.127 11.754a19.64 19.64 0 0 1 0.58203 4.6562 19.64 19.64 0 0 1-19.639 19.639 19.64 19.64 0 0 1-19.641-19.639 19.64 19.64 0 0 1 0.58398-4.6562l3.7754-14.182-88.736-6.9043 2.1953 8.248a8.9644 8.9644 0 0 1 0.26562 2.125 8.9644 8.9644 0 0 1-8.9648 8.9648 8.9644 8.9644 0 0 1-8.9648-8.9648 8.9644 8.9644 0 0 1 0.26563-2.125l2.459-9.2383-59.385-4.6211a6.0609 6.0609 0 0 1 0.09375 1.0547 6.0609 6.0609 0 0 1-6.0606 6.0606 6.0609 6.0609 0 0 1-6.0606-6.0606 6.0609 6.0609 0 0 1 0.33399-1.9648l-46.32-3.6035a28.124 28.124 0 0 1-24.346 14.115 28.124 28.124 0 0 1-26.225-18.051l-118.5-9.2188 6.4785 24.342a18.274 18.274 0 0 1 0.53907 4.332 18.274 18.274 0 0 1-18.271 18.273 18.274 18.274 0 0 1-18.273-18.273 18.274 18.274 0 0 1 0.54102-4.332l6.9356-26.059-66.762-5.1934 0.23242 0.87304a4.6363 4.6363 0 0 1 0.13672 1.0996 4.6363 4.6363 0 0 1-4.6367 4.6367 4.6363 4.6363 0 0 1-4.6348-4.6367 4.6363 4.6363 0 0 1 0.13672-1.0996l0.40625-1.5234-95.59-7.4375 2.8418 10.68a11.24 11.24 0 0 1 0.33203 2.6641 11.24 11.24 0 0 1-11.238 11.24 11.24 11.24 0 0 1-11.24-11.24 11.24 11.24 0 0 1 0.33398-2.6641l3.1699-11.908-51.154-3.9805z" fill="#273549"/>
 </g>
</svg>
